<?xml version="1.0" encoding="utf-8"?><svg version="1.1" id="Layer_1" xmlns="http://www.w3.org/2000/svg" xmlns:xlink="http://www.w3.org/1999/xlink" x="0px" y="0px" viewBox="0 0 106.53 122.88" style="enable-background:new 0 0 106.53 122.88" xml:space="preserve"><style type="text/css">.st0{fill-rule:evenodd;clip-rule:evenodd;}</style><g><path class="st0" d="M42.09,16.99c0.43,0.12,0.91,0.07,1.43-0.13l-0.85-4.86c0.32-1.22,0.81-2.17,1.46-2.87 c0.68-0.73,1.53-1.18,2.54-1.38C48,7.65,48.4,8.63,49.74,9.49c4.08,2.6,7.52,3.48,12.56,3.55l-1.04,4.2 c0.33,0.14,0.73,0.18,1.13,0.11c0.81-0.07,1.3,0,1.42,0.26c0.19,0.38,0.02,1.17-0.55,2.45l-2.75,4.53 c-1.02,1.68-2.06,3.37-3.37,4.59c-1.25,1.17-2.79,1.95-4.9,1.95c-1.94,0-3.42-0.76-4.63-1.86c-1.27-1.16-2.29-2.74-3.27-4.3 l-2.45-3.89l0,0l-0.01-0.02c-0.74-1.11-1.13-2.06-1.15-2.79c-0.01-0.24,0.03-0.45,0.11-0.62c0.07-0.15,0.18-0.27,0.32-0.37 C41.39,17.13,41.69,17.03,42.09,16.99L42.09,16.99z M44.34,35.3l4.38,12.87l2.2-7.64l-1.08-1.18c-0.49-0.71-0.59-1.33-0.32-1.86 c0.58-1.16,1.79-0.94,2.92-0.94c1.18,0,2.64-0.22,3.02,1.26c0.12,0.5-0.03,1.01-0.38,1.55l-1.08,1.18l2.2,7.64l3.96-12.87 c2.86,2.57,11.32,3.09,14.47,4.84c1,0.56,1.89,1.26,2.62,2.22c1.1,1.45,1.77,3.34,1.95,5.75l0.66,10.41 c-0.16,1.7-1.12,2.68-3.02,2.83H52.45H27.66c-1.9-0.14-2.86-1.12-3.02-2.83l0.66-10.41c0.18-2.4,0.86-4.3,1.96-5.75 c0.72-0.96,1.62-1.66,2.62-2.22C33.02,38.39,41.48,37.87,44.34,35.3L44.34,35.3z M58,63.95v11.8h43.17v5.59v3.02v13.8h-8.61v-13.8 H58v12.42h-9.18V84.36H13.96v13.8H5.35v-13.8v-3.02v-5.59h43.47v-11.8H58L58,63.95z M96.87,103.57c5.33,0,9.65,4.32,9.65,9.66 s-4.32,9.65-9.65,9.65c-5.33,0-9.66-4.32-9.66-9.65S91.54,103.57,96.87,103.57L96.87,103.57z M9.65,103.57 c5.33,0,9.66,4.32,9.66,9.66s-4.32,9.65-9.66,9.65S0,118.56,0,113.22S4.32,103.57,9.65,103.57L9.65,103.57z M53.41,103.57 c5.33,0,9.65,4.32,9.65,9.66s-4.32,9.65-9.65,9.65c-5.33,0-9.65-4.32-9.65-9.65S48.08,103.57,53.41,103.57L53.41,103.57z M63.99,15.91l0.15-6.26c-0.18-2.58-1.04-4.52-2.39-5.99c-3.33-3.61-9.56-4.54-14.26-2.84c-0.79,0.29-1.54,0.65-2.22,1.08 c-1.94,1.24-3.51,3.03-4.13,5.27c-0.15,0.53-0.25,1.06-0.3,1.58c-0.1,2.19-0.04,4.81,0.11,6.9c-0.23,0.09-0.45,0.19-0.64,0.32 c-0.39,0.26-0.68,0.61-0.87,1.01c-0.18,0.39-0.26,0.83-0.25,1.31c0.03,1.02,0.5,2.25,1.4,3.6l2.45,3.89 c1.03,1.64,2.12,3.32,3.54,4.62c1.48,1.35,3.28,2.27,5.68,2.28c2.57,0.01,4.44-0.94,5.97-2.37c1.46-1.37,2.56-3.15,3.64-4.92 l2.79-4.59c0.02-0.03,0.03-0.06,0.05-0.09l0,0c0.77-1.75,0.93-2.98,0.53-3.8C64.97,16.41,64.56,16.08,63.99,15.91L63.99,15.91z"/></g></svg>