<?xml version="1.0" encoding="iso-8859-1"?>
<!-- Generator: Adobe Illustrator 16.0.0, SVG Export Plug-In . SVG Version: 6.00 Build 0)  -->
<!DOCTYPE svg PUBLIC "-//W3C//DTD SVG 1.1//EN" "http://www.w3.org/Graphics/SVG/1.1/DTD/svg11.dtd">
<svg version="1.1" id="Capa_1" xmlns="http://www.w3.org/2000/svg" xmlns:xlink="http://www.w3.org/1999/xlink" x="0px" y="0px"
	 width="31.592px" height="31.592px" viewBox="0 0 31.592 31.592" style="enable-background:new 0 0 31.592 31.592;"
	 xml:space="preserve">
<g>
	<g>
		<polygon points="8.007,7.953 8.198,8.82 9.666,8.122 9.703,8.122 9.703,14.215 11.396,14.215 11.396,6.542 9.941,6.542 
			7.899,7.468 7.901,7.475 7.899,7.475 		"/>
		<path d="M30.467,0.111H2.196c-0.601,0-1.068,0.508-1.068,1.108v18.246c0.476-0.889,1.23-1.604,2.144-2.031V2.255h26.063v15.931
			c0.957,0.858,1.56,2.104,1.56,3.487c0,0.043-0.004,0.086-0.004,0.129c0.403-0.168,0.701-0.559,0.701-1.012V1.219
			C31.592,0.62,31.066,0.111,30.467,0.111z"/>
		<path d="M9.528,19.746c0.267,0.588,0.417,1.239,0.417,1.93c0,0.07-0.002,0.144-0.005,0.216h1.113
			c-0.003-0.072-0.006-0.146-0.006-0.216c0-0.688,0.151-1.342,0.418-1.93H9.528z"/>
		<path d="M20.003,19.746c0.267,0.588,0.417,1.239,0.417,1.93c0,0.07-0.003,0.144-0.005,0.216h1.113
			c-0.003-0.072-0.005-0.146-0.005-0.216c0-0.688,0.15-1.342,0.416-1.93H20.003z"/>
		<polygon points="14.893,7.897 14.893,10.492 12.411,10.492 12.411,11.621 14.893,11.621 14.893,14.215 16.134,14.215 
			16.134,11.621 18.616,11.621 18.616,10.492 16.134,10.492 16.134,7.897 		"/>
		<path d="M19.598,12.211l-0.979,0.904v1.1h5.416v-1.467H21.1v-0.051l0.736-0.592c1.115-0.996,2.076-2.052,2.076-3.344
			c0-1.402-0.961-2.444-2.704-2.444c-0.001,0-0.002,0-0.003,0h-0.002c-1.046,0-1.947,0.378-2.527,0.817l0.512,1.306
			c0.002,0,0.002,0.006,0.004,0.005V8.45c0.404-0.311,0.984-0.639,1.65-0.64c0.887,0.001,1.269,0.499,1.269,1.127
			C22.085,9.839,21.283,10.706,19.598,12.211z"/>
		<circle cx="5.259" cy="21.672" r="3.054"/>
		<circle cx="15.734" cy="21.672" r="3.054"/>
		<path d="M29.393,25.948h-1.295h-3.779h-1.295c-0.981,0-1.815,0.67-2.062,1.572c0,0.002,0,0.003,0,0.003
			c-0.169-0.609-0.597-1.116-1.165-1.376c-0.269-0.122-0.563-0.199-0.878-0.199h-1.294h-3.78H12.55c-0.98,0-1.824,0.669-2.072,1.572
			c0,0,0,0.002,0,0.003c-0.169-0.611-0.592-1.116-1.16-1.376c-0.27-0.123-0.558-0.199-0.874-0.199H7.149H3.37H2.076
			C0.898,25.948,0,26.916,0,28.092v3.389h8.788h1.593h0.195h8.688h1.61h0.177h10.43V28.09C31.48,26.916,30.569,25.948,29.393,25.948
			z"/>
		<circle cx="26.209" cy="21.672" r="3.054"/>
	</g>
</g>
<g>
</g>
<g>
</g>
<g>
</g>
<g>
</g>
<g>
</g>
<g>
</g>
<g>
</g>
<g>
</g>
<g>
</g>
<g>
</g>
<g>
</g>
<g>
</g>
<g>
</g>
<g>
</g>
<g>
</g>
</svg>
